<svg width="263" height="12" viewBox="0 0 263 12" fill="none" xmlns="http://www.w3.org/2000/svg">
<path d="M3 6.24503C3 5.70147 3.13258 5.20597 3.39773 4.75852C3.66288 4.31108 4.01918 3.95478 4.46662 3.68963C4.91406 3.42448 5.40956 3.2919 5.95312 3.2919C6.42377 3.2919 6.85795 3.39299 7.25568 3.59517C7.65672 3.79735 7.98816 4.0741 8.25 4.42543C8.51184 4.77344 8.67424 5.16785 8.73722 5.60866H7.53409C7.4678 5.26728 7.28385 4.98887 6.98224 4.77344C6.68063 4.55469 6.33759 4.44531 5.95312 4.44531C5.62169 4.44531 5.32008 4.52652 5.0483 4.68892C4.77652 4.85133 4.55942 5.06842 4.39702 5.3402C4.23461 5.61198 4.15341 5.91359 4.15341 6.24503C4.15341 6.57647 4.23461 6.87808 4.39702 7.14986C4.55942 7.42164 4.77652 7.63873 5.0483 7.80114C5.32008 7.96354 5.62169 8.04474 5.95312 8.04474C6.33759 8.04474 6.66241 7.93703 6.92756 7.72159C7.19602 7.50284 7.36506 7.22277 7.43466 6.88139H8.63778C8.57481 7.32221 8.42069 7.71828 8.17543 8.0696C7.93016 8.41761 7.61529 8.69271 7.23082 8.89489C6.84967 9.09706 6.42377 9.19815 5.95312 9.19815C5.40956 9.19815 4.91406 9.06558 4.46662 8.80043C4.01918 8.53527 3.66288 8.17898 3.39773 7.73153C3.13258 7.28409 3 6.78859 3 6.24503ZM5.90341 11.495C5.18087 11.495 4.50142 11.3591 3.86506 11.0874C3.23201 10.8156 2.67353 10.4394 2.18963 9.95881C1.70904 9.47491 1.3312 8.91643 1.05611 8.28338C0.784328 7.65033 0.650095 6.97088 0.653409 6.24503C0.656723 5.51918 0.794271 4.83973 1.06605 4.20668C1.34115 3.57363 1.71899 3.01681 2.19957 2.53622C2.68016 2.05232 3.23698 1.67448 3.87003 1.4027C4.50308 1.13092 5.18087 0.995028 5.90341 0.995028C6.62926 0.995028 7.30871 1.13092 7.94176 1.4027C8.57813 1.67448 9.13494 2.05232 9.61222 2.53622C10.0928 3.01681 10.469 3.57363 10.7408 4.20668C11.0125 4.83973 11.1501 5.51918 11.1534 6.24503C11.1567 6.97088 11.0225 7.65033 10.7507 8.28338C10.4789 8.91643 10.1027 9.47491 9.62216 9.95881C9.14157 10.4394 8.5831 10.8156 7.94673 11.0874C7.31037 11.3591 6.62926 11.495 5.90341 11.495ZM5.90341 10.3416C6.47017 10.3416 7.00213 10.2356 7.49929 10.0234C7.99645 9.81132 8.43229 9.51799 8.80682 9.14347C9.18134 8.76894 9.47467 8.33475 9.68679 7.84091C9.89891 7.34375 10.0033 6.81345 10 6.25C9.99669 5.68324 9.88897 5.15128 9.67685 4.65412C9.46473 4.15696 9.1714 3.72112 8.79688 3.34659C8.42235 2.97206 7.98816 2.67874 7.49432 2.46662C7.00047 2.2545 6.47017 2.14844 5.90341 2.14844C5.33996 2.14844 4.81132 2.2545 4.31747 2.46662C3.82363 2.67874 3.38944 2.97372 3.01491 3.35156C2.64039 3.72609 2.34541 4.16193 2.12997 4.65909C1.91785 5.15294 1.81013 5.68324 1.80682 6.25C1.8035 6.81013 1.90791 7.33878 2.12003 7.83594C2.33215 8.32978 2.62547 8.76397 3 9.13849C3.37784 9.51302 3.81368 9.808 4.30753 10.0234C4.80469 10.2356 5.33665 10.3416 5.90341 10.3416ZM17.302 11.3359V10.4411L20.6628 6.76207C21.0572 6.3312 21.382 5.95668 21.6373 5.63849C21.8925 5.317 22.0814 5.01539 22.204 4.73366C22.33 4.44863 22.3929 4.15033 22.3929 3.83878C22.3929 3.48082 22.3068 3.17093 22.1344 2.90909C21.9654 2.64725 21.7334 2.44508 21.4384 2.30256C21.1434 2.16004 20.812 2.08878 20.4441 2.08878C20.053 2.08878 19.7116 2.16998 19.4199 2.33239C19.1316 2.49148 18.9078 2.7152 18.7488 3.00355C18.593 3.2919 18.5151 3.62997 18.5151 4.01776H17.3418C17.3418 3.42116 17.4793 2.89749 17.7544 2.44673C18.0295 1.99597 18.4041 1.64465 18.878 1.39276C19.3553 1.14086 19.8906 1.01491 20.4838 1.01491C21.0804 1.01491 21.6091 1.14086 22.0698 1.39276C22.5305 1.64465 22.8917 1.98437 23.1536 2.41193C23.4154 2.83949 23.5463 3.3151 23.5463 3.83878C23.5463 4.2133 23.4784 4.57955 23.3425 4.9375C23.2099 5.29214 22.9779 5.68821 22.6465 6.12571C22.3184 6.5599 21.8626 7.0902 21.2793 7.71662L18.9924 10.1626V10.2422H23.7253V11.3359H17.302ZM29.0996 11.4751C28.3506 11.4751 27.7125 11.2713 27.1855 10.8636C26.6586 10.4527 26.2559 9.85772 25.9775 9.07884C25.699 8.29664 25.5598 7.35204 25.5598 6.24503C25.5598 5.14465 25.699 4.20502 25.9775 3.42614C26.2592 2.64394 26.6635 2.04735 27.1905 1.63636C27.7208 1.22206 28.3572 1.01491 29.0996 1.01491C29.842 1.01491 30.4767 1.22206 31.0037 1.63636C31.534 2.04735 31.9384 2.64394 32.2168 3.42614C32.4985 4.20502 32.6394 5.14465 32.6394 6.24503C32.6394 7.35204 32.5002 8.29664 32.2218 9.07884C31.9434 9.85772 31.5407 10.4527 31.0137 10.8636C30.4867 11.2713 29.8487 11.4751 29.0996 11.4751ZM29.0996 10.3814C29.842 10.3814 30.4187 10.0234 30.8297 9.30753C31.2407 8.59162 31.4462 7.57079 31.4462 6.24503C31.4462 5.3634 31.3517 4.61269 31.1628 3.9929C30.9772 3.37311 30.7087 2.9008 30.3574 2.57599C30.0094 2.25118 29.5901 2.08878 29.0996 2.08878C28.3638 2.08878 27.7888 2.4517 27.3745 3.17756C26.9602 3.90009 26.753 4.92258 26.753 6.24503C26.753 7.12666 26.8458 7.87571 27.0314 8.49219C27.217 9.10866 27.4838 9.57765 27.8319 9.89915C28.1832 10.2206 28.6058 10.3814 29.0996 10.3814ZM34.5286 11.3359V10.4411L37.8894 6.76207C38.2838 6.3312 38.6086 5.95668 38.8638 5.63849C39.119 5.317 39.3079 5.01539 39.4306 4.73366C39.5565 4.44863 39.6195 4.15033 39.6195 3.83878C39.6195 3.48082 39.5333 3.17093 39.361 2.90909C39.1919 2.64725 38.9599 2.44508 38.665 2.30256C38.37 2.16004 38.0385 2.08878 37.6706 2.08878C37.2795 2.08878 36.9382 2.16998 36.6465 2.33239C36.3581 2.49148 36.1344 2.7152 35.9753 3.00355C35.8195 3.2919 35.7417 3.62997 35.7417 4.01776H34.5684C34.5684 3.42116 34.7059 2.89749 34.981 2.44673C35.2561 1.99597 35.6306 1.64465 36.1046 1.39276C36.5819 1.14086 37.1171 1.01491 37.7104 1.01491C38.307 1.01491 38.8356 1.14086 39.2963 1.39276C39.757 1.64465 40.1183 1.98437 40.3801 2.41193C40.642 2.83949 40.7729 3.3151 40.7729 3.83878C40.7729 4.2133 40.705 4.57955 40.5691 4.9375C40.4365 5.29214 40.2045 5.68821 39.873 6.12571C39.5449 6.5599 39.0892 7.0902 38.5059 7.71662L36.2189 10.1626V10.2422H40.9519V11.3359H34.5286ZM43.0051 11.3359V10.4411L46.3659 6.76207C46.7604 6.3312 47.0852 5.95668 47.3404 5.63849C47.5956 5.317 47.7845 5.01539 47.9071 4.73366C48.0331 4.44863 48.0961 4.15033 48.0961 3.83878C48.0961 3.48082 48.0099 3.17093 47.8375 2.90909C47.6685 2.64725 47.4365 2.44508 47.1415 2.30256C46.8465 2.16004 46.5151 2.08878 46.1472 2.08878C45.7561 2.08878 45.4147 2.16998 45.123 2.33239C44.8347 2.49148 44.611 2.7152 44.4519 3.00355C44.2961 3.2919 44.2182 3.62997 44.2182 4.01776H43.0449C43.0449 3.42116 43.1825 2.89749 43.4576 2.44673C43.7327 1.99597 44.1072 1.64465 44.5811 1.39276C45.0584 1.14086 45.5937 1.01491 46.187 1.01491C46.7836 1.01491 47.3122 1.14086 47.7729 1.39276C48.2336 1.64465 48.5949 1.98437 48.8567 2.41193C49.1185 2.83949 49.2495 3.3151 49.2495 3.83878C49.2495 4.2133 49.1815 4.57955 49.0456 4.9375C48.9131 5.29214 48.681 5.68821 48.3496 6.12571C48.0215 6.5599 47.5658 7.0902 46.9824 7.71662L44.6955 10.1626V10.2422H49.4284V11.3359H43.0051ZM59.8141 5.69815V6.7919H55.3596V5.69815H59.8141ZM69.3558 2.24787V1.15412H76.9922V2.24787H73.7905V11.3359H72.5575V2.24787H69.3558ZM80.7308 11.495C80.0414 11.495 79.4366 11.331 78.9162 11.0028C78.3991 10.6747 77.9948 10.2157 77.7031 9.62571C77.4148 9.03575 77.2706 8.34635 77.2706 7.55753C77.2706 6.76207 77.4148 6.06771 77.7031 5.47443C77.9948 4.88115 78.3991 4.42045 78.9162 4.09233C79.4366 3.7642 80.0414 3.60014 80.7308 3.60014C81.4202 3.60014 82.0234 3.7642 82.5405 4.09233C83.0608 4.42045 83.4652 4.88115 83.7536 5.47443C84.0452 6.06771 84.1911 6.76207 84.1911 7.55753C84.1911 8.34635 84.0452 9.03575 83.7536 9.62571C83.4652 10.2157 83.0608 10.6747 82.5405 11.0028C82.0234 11.331 81.4202 11.495 80.7308 11.495ZM80.7308 10.4411C81.2545 10.4411 81.6854 10.3068 82.0234 10.0384C82.3615 9.76989 82.6117 9.4169 82.7741 8.9794C82.9366 8.5419 83.0178 8.06794 83.0178 7.55753C83.0178 7.04711 82.9366 6.5715 82.7741 6.13068C82.6117 5.68987 82.3615 5.33357 82.0234 5.06179C81.6854 4.79001 81.2545 4.65412 80.7308 4.65412C80.2071 4.65412 79.7763 4.79001 79.4382 5.06179C79.1001 5.33357 78.8499 5.68987 78.6875 6.13068C78.5251 6.5715 78.4439 7.04711 78.4439 7.55753C78.4439 8.06794 78.5251 8.5419 78.6875 8.9794C78.8499 9.4169 79.1001 9.76989 79.4382 10.0384C79.7763 10.3068 80.2071 10.4411 80.7308 10.4411ZM88.8656 11.495C88.2292 11.495 87.6674 11.3343 87.1802 11.0128C86.693 10.688 86.3118 10.2306 86.0368 9.64062C85.7617 9.04735 85.6241 8.34635 85.6241 7.53764C85.6241 6.73556 85.7617 6.03954 86.0368 5.44957C86.3118 4.85961 86.6947 4.40388 87.1852 4.08239C87.6757 3.76089 88.2425 3.60014 88.8855 3.60014C89.3826 3.60014 89.7754 3.683 90.0637 3.84872C90.3554 4.01113 90.5775 4.19673 90.7299 4.40554C90.8857 4.61103 91.0067 4.78007 91.0929 4.91264H91.1923V1.15412H92.3656V11.3359H91.2321V10.1626H91.0929C91.0067 10.3018 90.8841 10.4775 90.725 10.6896C90.5659 10.8984 90.3388 11.0857 90.0439 11.2514C89.7489 11.4138 89.3561 11.495 88.8656 11.495ZM89.0247 10.4411C89.4953 10.4411 89.8931 10.3184 90.2179 10.0732C90.5427 9.82457 90.7896 9.48153 90.9586 9.04403C91.1277 8.60322 91.2122 8.09446 91.2122 7.51776C91.2122 6.94768 91.1293 6.44886 90.9636 6.02131C90.7979 5.59044 90.5526 5.25568 90.2278 5.01705C89.903 4.77509 89.502 4.65412 89.0247 4.65412C88.5275 4.65412 88.1132 4.78172 87.7818 5.03693C87.4537 5.28883 87.2067 5.63187 87.041 6.06605C86.8786 6.49692 86.7974 6.98082 86.7974 7.51776C86.7974 8.06132 86.8803 8.55516 87.046 8.99929C87.215 9.4401 87.4636 9.79143 87.7917 10.0533C88.1232 10.3118 88.5342 10.4411 89.0247 10.4411ZM97.7797 11.495C97.0903 11.495 96.4854 11.331 95.965 11.0028C95.448 10.6747 95.0436 10.2157 94.752 9.62571C94.4636 9.03575 94.3194 8.34635 94.3194 7.55753C94.3194 6.76207 94.4636 6.06771 94.752 5.47443C95.0436 4.88115 95.448 4.42045 95.965 4.09233C96.4854 3.7642 97.0903 3.60014 97.7797 3.60014C98.469 3.60014 99.0723 3.7642 99.5893 4.09233C100.11 4.42045 100.514 4.88115 100.802 5.47443C101.094 6.06771 101.24 6.76207 101.24 7.55753C101.24 8.34635 101.094 9.03575 100.802 9.62571C100.514 10.2157 100.11 10.6747 99.5893 11.0028C99.0723 11.331 98.469 11.495 97.7797 11.495ZM97.7797 10.4411C98.3033 10.4411 98.7342 10.3068 99.0723 10.0384C99.4103 9.76989 99.6606 9.4169 99.823 8.9794C99.9854 8.5419 100.067 8.06794 100.067 7.55753C100.067 7.04711 99.9854 6.5715 99.823 6.13068C99.6606 5.68987 99.4103 5.33357 99.0723 5.06179C98.7342 4.79001 98.3033 4.65412 97.7797 4.65412C97.256 4.65412 96.8251 4.79001 96.487 5.06179C96.149 5.33357 95.8987 5.68987 95.7363 6.13068C95.5739 6.5715 95.4927 7.04711 95.4927 7.55753C95.4927 8.06794 95.5739 8.5419 95.7363 8.9794C95.8987 9.4169 96.149 9.76989 96.487 10.0384C96.8251 10.3068 97.256 10.4411 97.7797 10.4411ZM108.44 5.4098L107.386 5.7081C107.32 5.53243 107.222 5.36174 107.093 5.19602C106.967 5.02699 106.794 4.88778 106.576 4.77841C106.357 4.66903 106.077 4.61435 105.735 4.61435C105.268 4.61435 104.879 4.72206 104.567 4.9375C104.259 5.14962 104.105 5.41974 104.105 5.74787C104.105 6.03954 104.211 6.26989 104.423 6.43892C104.635 6.60795 104.967 6.74882 105.417 6.86151L106.551 7.13991C107.234 7.30563 107.742 7.55919 108.077 7.90057C108.412 8.23864 108.579 8.67448 108.579 9.2081C108.579 9.6456 108.453 10.0367 108.201 10.3814C107.953 10.7261 107.605 10.9979 107.157 11.1967C106.71 11.3956 106.19 11.495 105.596 11.495C104.817 11.495 104.173 11.326 103.662 10.9879C103.152 10.6499 102.829 10.156 102.693 9.50639L103.806 9.22798C103.913 9.63897 104.113 9.94721 104.408 10.1527C104.706 10.3582 105.096 10.4609 105.576 10.4609C106.123 10.4609 106.557 10.3449 106.879 10.1129C107.204 9.8776 107.366 9.59588 107.366 9.26776C107.366 9.0026 107.273 8.78054 107.088 8.60156C106.902 8.41927 106.617 8.28338 106.233 8.19389L104.96 7.8956C104.261 7.72988 103.747 7.47301 103.419 7.125C103.094 6.77367 102.931 6.33452 102.931 5.80753C102.931 5.37666 103.052 4.9955 103.294 4.66406C103.54 4.33262 103.873 4.07244 104.294 3.88352C104.718 3.6946 105.199 3.60014 105.735 3.60014C106.491 3.60014 107.084 3.76586 107.515 4.0973C107.949 4.42874 108.258 4.86624 108.44 5.4098ZM117.385 11.495C116.696 11.495 116.091 11.331 115.57 11.0028C115.053 10.6747 114.649 10.2157 114.357 9.62571C114.069 9.03575 113.925 8.34635 113.925 7.55753C113.925 6.76207 114.069 6.06771 114.357 5.47443C114.649 4.88115 115.053 4.42045 115.57 4.09233C116.091 3.7642 116.696 3.60014 117.385 3.60014C118.075 3.60014 118.678 3.7642 119.195 4.09233C119.715 4.42045 120.119 4.88115 120.408 5.47443C120.7 6.06771 120.845 6.76207 120.845 7.55753C120.845 8.34635 120.7 9.03575 120.408 9.62571C120.119 10.2157 119.715 10.6747 119.195 11.0028C118.678 11.331 118.075 11.495 117.385 11.495ZM117.385 10.4411C117.909 10.4411 118.34 10.3068 118.678 10.0384C119.016 9.76989 119.266 9.4169 119.428 8.9794C119.591 8.5419 119.672 8.06794 119.672 7.55753C119.672 7.04711 119.591 6.5715 119.428 6.13068C119.266 5.68987 119.016 5.33357 118.678 5.06179C118.34 4.79001 117.909 4.65412 117.385 4.65412C116.861 4.65412 116.431 4.79001 116.093 5.06179C115.754 5.33357 115.504 5.68987 115.342 6.13068C115.179 6.5715 115.098 7.04711 115.098 7.55753C115.098 8.06794 115.179 8.5419 115.342 8.9794C115.504 9.4169 115.754 9.76989 116.093 10.0384C116.431 10.3068 116.861 10.4411 117.385 10.4411ZM128.045 5.4098L126.991 5.7081C126.925 5.53243 126.827 5.36174 126.698 5.19602C126.572 5.02699 126.4 4.88778 126.181 4.77841C125.962 4.66903 125.682 4.61435 125.341 4.61435C124.874 4.61435 124.484 4.72206 124.173 4.9375C123.864 5.14962 123.71 5.41974 123.71 5.74787C123.71 6.03954 123.816 6.26989 124.028 6.43892C124.241 6.60795 124.572 6.74882 125.023 6.86151L126.156 7.13991C126.839 7.30563 127.348 7.55919 127.683 7.90057C128.017 8.23864 128.185 8.67448 128.185 9.2081C128.185 9.6456 128.059 10.0367 127.807 10.3814C127.558 10.7261 127.21 10.9979 126.763 11.1967C126.315 11.3956 125.795 11.495 125.202 11.495C124.423 11.495 123.778 11.326 123.268 10.9879C122.757 10.6499 122.434 10.156 122.298 9.50639L123.412 9.22798C123.518 9.63897 123.719 9.94721 124.013 10.1527C124.312 10.3582 124.701 10.4609 125.182 10.4609C125.729 10.4609 126.163 10.3449 126.484 10.1129C126.809 9.8776 126.972 9.59588 126.972 9.26776C126.972 9.0026 126.879 8.78054 126.693 8.60156C126.508 8.41927 126.223 8.28338 125.838 8.19389L124.565 7.8956C123.866 7.72988 123.352 7.47301 123.024 7.125C122.699 6.77367 122.537 6.33452 122.537 5.80753C122.537 5.37666 122.658 4.9955 122.9 4.66406C123.145 4.33262 123.478 4.07244 123.899 3.88352C124.323 3.6946 124.804 3.60014 125.341 3.60014C126.097 3.60014 126.69 3.76586 127.121 4.0973C127.555 4.42874 127.863 4.86624 128.045 5.4098ZM136.772 11.495C136.135 11.495 135.574 11.3343 135.086 11.0128C134.599 10.688 134.218 10.2306 133.943 9.64062C133.668 9.04735 133.53 8.34635 133.53 7.53764C133.53 6.73556 133.668 6.03954 133.943 5.44957C134.218 4.85961 134.601 4.40388 135.091 4.08239C135.582 3.76089 136.149 3.60014 136.792 3.60014C137.289 3.60014 137.682 3.683 137.97 3.84872C138.262 4.01113 138.484 4.19673 138.636 4.40554C138.792 4.61103 138.913 4.78007 138.999 4.91264H139.099V1.15412H140.272V11.3359H139.138V10.1626H138.999C138.913 10.3018 138.79 10.4775 138.631 10.6896C138.472 10.8984 138.245 11.0857 137.95 11.2514C137.655 11.4138 137.262 11.495 136.772 11.495ZM136.931 10.4411C137.402 10.4411 137.799 10.3184 138.124 10.0732C138.449 9.82457 138.696 9.48153 138.865 9.04403C139.034 8.60322 139.118 8.09446 139.118 7.51776C139.118 6.94768 139.036 6.44886 138.87 6.02131C138.704 5.59044 138.459 5.25568 138.134 5.01705C137.809 4.77509 137.408 4.65412 136.931 4.65412C136.434 4.65412 136.019 4.78172 135.688 5.03693C135.36 5.28883 135.113 5.63187 134.947 6.06605C134.785 6.49692 134.704 6.98082 134.704 7.51776C134.704 8.06132 134.787 8.55516 134.952 8.99929C135.121 9.4401 135.37 9.79143 135.698 10.0533C136.029 10.3118 136.44 10.4411 136.931 10.4411ZM142.584 11.3359V3.69957H143.757V11.3359H142.584ZM143.18 2.42685C142.952 2.42685 142.754 2.34896 142.589 2.19318C142.426 2.03741 142.345 1.85014 142.345 1.63139C142.345 1.41264 142.426 1.22538 142.589 1.0696C142.754 0.913826 142.952 0.835938 143.18 0.835938C143.409 0.835938 143.604 0.913826 143.767 1.0696C143.933 1.22538 144.015 1.41264 144.015 1.63139C144.015 1.85014 143.933 2.03741 143.767 2.19318C143.604 2.34896 143.409 2.42685 143.18 2.42685ZM145.906 11.3359V3.69957H147.039V4.85298H147.119C147.258 4.47514 147.51 4.16856 147.875 3.93324C148.239 3.69792 148.65 3.58026 149.108 3.58026C149.194 3.58026 149.301 3.58191 149.431 3.58523C149.56 3.58854 149.658 3.59351 149.724 3.60014V4.79332C149.684 4.78338 149.593 4.76847 149.451 4.74858C149.311 4.72538 149.164 4.71378 149.008 4.71378C148.637 4.71378 148.306 4.79167 148.014 4.94744C147.725 5.09991 147.497 5.31203 147.328 5.58381C147.162 5.85227 147.079 6.15885 147.079 6.50355V11.3359H145.906ZM154.084 11.495C153.348 11.495 152.714 11.3326 152.18 11.0078C151.65 10.6797 151.24 10.2223 150.952 9.63565C150.667 9.04569 150.525 8.35961 150.525 7.57741C150.525 6.79522 150.667 6.10582 150.952 5.50923C151.24 4.90933 151.641 4.442 152.155 4.10724C152.672 3.76918 153.275 3.60014 153.965 3.60014C154.363 3.60014 154.755 3.66643 155.143 3.79901C155.531 3.93158 155.884 4.14702 156.202 4.44531C156.52 4.74029 156.774 5.13139 156.963 5.61861C157.152 6.10582 157.246 6.70573 157.246 7.41832V7.91548H151.36V6.90128H156.053C156.053 6.47041 155.967 6.08594 155.794 5.74787C155.625 5.4098 155.383 5.14299 155.069 4.94744C154.757 4.75189 154.389 4.65412 153.965 4.65412C153.498 4.65412 153.093 4.77012 152.752 5.00213C152.414 5.23082 152.154 5.52912 151.971 5.89702C151.789 6.26491 151.698 6.65933 151.698 7.08026V7.75639C151.698 8.3331 151.797 8.82197 151.996 9.22301C152.198 9.62074 152.478 9.92401 152.836 10.1328C153.194 10.3383 153.61 10.4411 154.084 10.4411C154.392 10.4411 154.671 10.398 154.919 10.3118C155.171 10.2223 155.388 10.0897 155.571 9.91406C155.753 9.73509 155.894 9.51302 155.993 9.24787L157.127 9.56605C157.007 9.95052 156.807 10.2886 156.525 10.5803C156.243 10.8686 155.895 11.094 155.481 11.2564C155.067 11.4155 154.601 11.495 154.084 11.495ZM159.031 11.3359V3.69957H160.204V11.3359H159.031ZM159.627 2.42685C159.399 2.42685 159.202 2.34896 159.036 2.19318C158.873 2.03741 158.792 1.85014 158.792 1.63139C158.792 1.41264 158.873 1.22538 159.036 1.0696C159.202 0.913826 159.399 0.835938 159.627 0.835938C159.856 0.835938 160.052 0.913826 160.214 1.0696C160.38 1.22538 160.463 1.41264 160.463 1.63139C160.463 1.85014 160.38 2.03741 160.214 2.19318C160.052 2.34896 159.856 2.42685 159.627 2.42685ZM165.674 3.69957V4.69389H161.717V3.69957H165.674ZM162.87 1.87003H164.044V9.14844C164.044 9.47988 164.092 9.72846 164.188 9.89418C164.287 10.0566 164.413 10.166 164.566 10.2223C164.721 10.2753 164.885 10.3018 165.058 10.3018C165.187 10.3018 165.293 10.2952 165.376 10.282C165.459 10.2654 165.525 10.2521 165.575 10.2422L165.813 11.2962C165.734 11.326 165.623 11.3558 165.48 11.3857C165.338 11.4188 165.157 11.4354 164.938 11.4354C164.607 11.4354 164.282 11.3641 163.964 11.2216C163.649 11.0791 163.387 10.862 163.178 10.5703C162.973 10.2786 162.87 9.91075 162.87 9.46662V1.87003ZM170.459 11.495C169.77 11.495 169.165 11.331 168.645 11.0028C168.128 10.6747 167.723 10.2157 167.432 9.62571C167.143 9.03575 166.999 8.34635 166.999 7.55753C166.999 6.76207 167.143 6.06771 167.432 5.47443C167.723 4.88115 168.128 4.42045 168.645 4.09233C169.165 3.7642 169.77 3.60014 170.459 3.60014C171.149 3.60014 171.752 3.7642 172.269 4.09233C172.789 4.42045 173.194 4.88115 173.482 5.47443C173.774 6.06771 173.92 6.76207 173.92 7.55753C173.92 8.34635 173.774 9.03575 173.482 9.62571C173.194 10.2157 172.789 10.6747 172.269 11.0028C171.752 11.331 171.149 11.495 170.459 11.495ZM170.459 10.4411C170.983 10.4411 171.414 10.3068 171.752 10.0384C172.09 9.76989 172.34 9.4169 172.503 8.9794C172.665 8.5419 172.746 8.06794 172.746 7.55753C172.746 7.04711 172.665 6.5715 172.503 6.13068C172.34 5.68987 172.09 5.33357 171.752 5.06179C171.414 4.79001 170.983 4.65412 170.459 4.65412C169.936 4.65412 169.505 4.79001 169.167 5.06179C168.829 5.33357 168.578 5.68987 168.416 6.13068C168.254 6.5715 168.172 7.04711 168.172 7.55753C168.172 8.06794 168.254 8.5419 168.416 8.9794C168.578 9.4169 168.829 9.76989 169.167 10.0384C169.505 10.3068 169.936 10.4411 170.459 10.4411ZM181.12 5.4098L180.066 5.7081C179.999 5.53243 179.902 5.36174 179.772 5.19602C179.646 5.02699 179.474 4.88778 179.255 4.77841C179.037 4.66903 178.757 4.61435 178.415 4.61435C177.948 4.61435 177.558 4.72206 177.247 4.9375C176.939 5.14962 176.784 5.41974 176.784 5.74787C176.784 6.03954 176.891 6.26989 177.103 6.43892C177.315 6.60795 177.646 6.74882 178.097 6.86151L179.23 7.13991C179.913 7.30563 180.422 7.55919 180.757 7.90057C181.092 8.23864 181.259 8.67448 181.259 9.2081C181.259 9.6456 181.133 10.0367 180.881 10.3814C180.632 10.7261 180.284 10.9979 179.837 11.1967C179.39 11.3956 178.869 11.495 178.276 11.495C177.497 11.495 176.852 11.326 176.342 10.9879C175.832 10.6499 175.508 10.156 175.373 9.50639L176.486 9.22798C176.592 9.63897 176.793 9.94721 177.088 10.1527C177.386 10.3582 177.775 10.4609 178.256 10.4609C178.803 10.4609 179.237 10.3449 179.559 10.1129C179.883 9.8776 180.046 9.59588 180.046 9.26776C180.046 9.0026 179.953 8.78054 179.767 8.60156C179.582 8.41927 179.297 8.28338 178.912 8.19389L177.64 7.8956C176.94 7.72988 176.426 7.47301 176.098 7.125C175.774 6.77367 175.611 6.33452 175.611 5.80753C175.611 5.37666 175.732 4.9955 175.974 4.66406C176.219 4.33262 176.552 4.07244 176.973 3.88352C177.398 3.6946 177.878 3.60014 178.415 3.60014C179.171 3.60014 179.764 3.76586 180.195 4.0973C180.629 4.42874 180.937 4.86624 181.12 5.4098ZM186.963 11.3359V3.69957H188.096V4.85298H188.176C188.315 4.47514 188.567 4.16856 188.931 3.93324C189.296 3.69792 189.707 3.58026 190.164 3.58026C190.25 3.58026 190.358 3.58191 190.487 3.58523C190.617 3.58854 190.714 3.59351 190.781 3.60014V4.79332C190.741 4.78338 190.65 4.76847 190.507 4.74858C190.368 4.72538 190.221 4.71378 190.065 4.71378C189.694 4.71378 189.362 4.79167 189.07 4.94744C188.782 5.09991 188.553 5.31203 188.384 5.58381C188.219 5.85227 188.136 6.15885 188.136 6.50355V11.3359H186.963ZM195.141 11.495C194.405 11.495 193.77 11.3326 193.237 11.0078C192.706 10.6797 192.297 10.2223 192.009 9.63565C191.724 9.04569 191.581 8.35961 191.581 7.57741C191.581 6.79522 191.724 6.10582 192.009 5.50923C192.297 4.90933 192.698 4.442 193.212 4.10724C193.729 3.76918 194.332 3.60014 195.021 3.60014C195.419 3.60014 195.812 3.66643 196.2 3.79901C196.588 3.93158 196.941 4.14702 197.259 4.44531C197.577 4.74029 197.83 5.13139 198.019 5.61861C198.208 6.10582 198.303 6.70573 198.303 7.41832V7.91548H192.416V6.90128H197.11C197.11 6.47041 197.023 6.08594 196.851 5.74787C196.682 5.4098 196.44 5.14299 196.125 4.94744C195.814 4.75189 195.446 4.65412 195.021 4.65412C194.554 4.65412 194.15 4.77012 193.808 5.00213C193.47 5.23082 193.21 5.52912 193.028 5.89702C192.846 6.26491 192.754 6.65933 192.754 7.08026V7.75639C192.754 8.3331 192.854 8.82197 193.053 9.22301C193.255 9.62074 193.535 9.92401 193.893 10.1328C194.251 10.3383 194.667 10.4411 195.141 10.4411C195.449 10.4411 195.727 10.398 195.976 10.3118C196.228 10.2223 196.445 10.0897 196.627 9.91406C196.81 9.73509 196.95 9.51302 197.05 9.24787L198.183 9.56605C198.064 9.95052 197.864 10.2886 197.582 10.5803C197.3 10.8686 196.952 11.094 196.538 11.2564C196.124 11.4155 195.658 11.495 195.141 11.495ZM205.497 5.4098L204.443 5.7081C204.376 5.53243 204.279 5.36174 204.149 5.19602C204.023 5.02699 203.851 4.88778 203.632 4.77841C203.414 4.66903 203.133 4.61435 202.792 4.61435C202.325 4.61435 201.935 4.72206 201.624 4.9375C201.316 5.14962 201.161 5.41974 201.161 5.74787C201.161 6.03954 201.267 6.26989 201.48 6.43892C201.692 6.60795 202.023 6.74882 202.474 6.86151L203.607 7.13991C204.29 7.30563 204.799 7.55919 205.134 7.90057C205.468 8.23864 205.636 8.67448 205.636 9.2081C205.636 9.6456 205.51 10.0367 205.258 10.3814C205.009 10.7261 204.661 10.9979 204.214 11.1967C203.767 11.3956 203.246 11.495 202.653 11.495C201.874 11.495 201.229 11.326 200.719 10.9879C200.209 10.6499 199.885 10.156 199.749 9.50639L200.863 9.22798C200.969 9.63897 201.17 9.94721 201.465 10.1527C201.763 10.3582 202.152 10.4609 202.633 10.4609C203.18 10.4609 203.614 10.3449 203.936 10.1129C204.26 9.8776 204.423 9.59588 204.423 9.26776C204.423 9.0026 204.33 8.78054 204.144 8.60156C203.959 8.41927 203.674 8.28338 203.289 8.19389L202.017 7.8956C201.317 7.72988 200.803 7.47301 200.475 7.125C200.151 6.77367 199.988 6.33452 199.988 5.80753C199.988 5.37666 200.109 4.9955 200.351 4.66406C200.596 4.33262 200.929 4.07244 201.35 3.88352C201.775 3.6946 202.255 3.60014 202.792 3.60014C203.548 3.60014 204.141 3.76586 204.572 4.0973C205.006 4.42874 205.314 4.86624 205.497 5.4098ZM210.604 11.495C209.868 11.495 209.233 11.3326 208.7 11.0078C208.169 10.6797 207.76 10.2223 207.472 9.63565C207.187 9.04569 207.044 8.35961 207.044 7.57741C207.044 6.79522 207.187 6.10582 207.472 5.50923C207.76 4.90933 208.161 4.442 208.675 4.10724C209.192 3.76918 209.795 3.60014 210.484 3.60014C210.882 3.60014 211.275 3.66643 211.663 3.79901C212.05 3.93158 212.403 4.14702 212.722 4.44531C213.04 4.74029 213.293 5.13139 213.482 5.61861C213.671 6.10582 213.766 6.70573 213.766 7.41832V7.91548H207.879V6.90128H212.572C212.572 6.47041 212.486 6.08594 212.314 5.74787C212.145 5.4098 211.903 5.14299 211.588 4.94744C211.277 4.75189 210.909 4.65412 210.484 4.65412C210.017 4.65412 209.613 4.77012 209.271 5.00213C208.933 5.23082 208.673 5.52912 208.491 5.89702C208.308 6.26491 208.217 6.65933 208.217 7.08026V7.75639C208.217 8.3331 208.317 8.82197 208.516 9.22301C208.718 9.62074 208.998 9.92401 209.356 10.1328C209.714 10.3383 210.13 10.4411 210.604 10.4411C210.912 10.4411 211.19 10.398 211.439 10.3118C211.691 10.2223 211.908 10.0897 212.09 9.91406C212.272 9.73509 212.413 9.51302 212.513 9.24787L213.646 9.56605C213.527 9.95052 213.326 10.2886 213.045 10.5803C212.763 10.8686 212.415 11.094 212.001 11.2564C211.586 11.4155 211.121 11.495 210.604 11.495ZM215.55 11.3359V3.69957H216.684V4.85298H216.763C216.903 4.47514 217.155 4.16856 217.519 3.93324C217.884 3.69792 218.295 3.58026 218.752 3.58026C218.838 3.58026 218.946 3.58191 219.075 3.58523C219.205 3.58854 219.302 3.59351 219.369 3.60014V4.79332C219.329 4.78338 219.238 4.76847 219.095 4.74858C218.956 4.72538 218.808 4.71378 218.653 4.71378C218.281 4.71378 217.95 4.79167 217.658 4.94744C217.37 5.09991 217.141 5.31203 216.972 5.58381C216.807 5.85227 216.724 6.15885 216.724 6.50355V11.3359H215.55ZM227.236 3.69957L224.412 11.3359H223.219L220.395 3.69957H221.668L223.776 9.7848H223.855L225.963 3.69957H227.236ZM230.8 11.5149C230.316 11.5149 229.876 11.4238 229.482 11.2415C229.088 11.0559 228.774 10.7891 228.542 10.4411C228.31 10.0897 228.194 9.66548 228.194 9.16832C228.194 8.73082 228.281 8.37618 228.453 8.1044C228.625 7.82931 228.856 7.61387 229.144 7.4581C229.432 7.30232 229.751 7.18632 230.099 7.11009C230.45 7.03054 230.803 6.96757 231.157 6.92116C231.622 6.86151 231.998 6.81676 232.286 6.78693C232.578 6.75379 232.79 6.6991 232.922 6.62287C233.058 6.54664 233.126 6.41406 233.126 6.22514V6.18537C233.126 5.69484 232.992 5.31368 232.724 5.0419C232.458 4.77012 232.056 4.63423 231.515 4.63423C230.955 4.63423 230.516 4.75687 230.198 5.00213C229.88 5.2474 229.656 5.50923 229.527 5.78764L228.413 5.38991C228.612 4.9259 228.877 4.56463 229.209 4.30611C229.543 4.04427 229.908 3.86198 230.302 3.75923C230.7 3.65317 231.091 3.60014 231.476 3.60014C231.721 3.60014 232.003 3.62997 232.321 3.68963C232.642 3.74597 232.952 3.86364 233.251 4.04261C233.552 4.22159 233.802 4.49171 234.001 4.85298C234.2 5.21425 234.3 5.69815 234.3 6.30469V11.3359H233.126V10.3018H233.067C232.987 10.4676 232.854 10.6449 232.669 10.8338C232.483 11.0227 232.236 11.1835 231.928 11.3161C231.62 11.4486 231.244 11.5149 230.8 11.5149ZM230.979 10.4609C231.443 10.4609 231.834 10.3698 232.152 10.1875C232.473 10.0052 232.715 9.76989 232.878 9.48153C233.043 9.19318 233.126 8.88991 233.126 8.57173V7.49787C233.077 7.55753 232.967 7.61222 232.798 7.66193C232.632 7.70833 232.44 7.74976 232.221 7.78622C232.006 7.81937 231.796 7.8492 231.59 7.87571C231.388 7.89891 231.224 7.9188 231.098 7.93537C230.793 7.97514 230.508 8.03977 230.243 8.12926C229.981 8.21544 229.769 8.34635 229.606 8.52202C229.447 8.69437 229.368 8.92969 229.368 9.22798C229.368 9.63565 229.519 9.94389 229.82 10.1527C230.125 10.3582 230.511 10.4609 230.979 10.4609ZM239.325 11.495C238.688 11.495 238.126 11.3343 237.639 11.0128C237.152 10.688 236.771 10.2306 236.496 9.64062C236.221 9.04735 236.083 8.34635 236.083 7.53764C236.083 6.73556 236.221 6.03954 236.496 5.44957C236.771 4.85961 237.154 4.40388 237.644 4.08239C238.135 3.76089 238.701 3.60014 239.344 3.60014C239.842 3.60014 240.234 3.683 240.523 3.84872C240.814 4.01113 241.036 4.19673 241.189 4.40554C241.345 4.61103 241.466 4.78007 241.552 4.91264H241.651V1.15412H242.825V11.3359H241.691V10.1626H241.552C241.466 10.3018 241.343 10.4775 241.184 10.6896C241.025 10.8984 240.798 11.0857 240.503 11.2514C240.208 11.4138 239.815 11.495 239.325 11.495ZM239.484 10.4411C239.954 10.4411 240.352 10.3184 240.677 10.0732C241.002 9.82457 241.249 9.48153 241.418 9.04403C241.587 8.60322 241.671 8.09446 241.671 7.51776C241.671 6.94768 241.588 6.44886 241.423 6.02131C241.257 5.59044 241.012 5.25568 240.687 5.01705C240.362 4.77509 239.961 4.65412 239.484 4.65412C238.987 4.65412 238.572 4.78172 238.241 5.03693C237.913 5.28883 237.666 5.63187 237.5 6.06605C237.338 6.49692 237.256 6.98082 237.256 7.51776C237.256 8.06132 237.339 8.55516 237.505 8.99929C237.674 9.4401 237.923 9.79143 238.251 10.0533C238.582 10.3118 238.993 10.4411 239.484 10.4411ZM248.239 11.495C247.549 11.495 246.944 11.331 246.424 11.0028C245.907 10.6747 245.503 10.2157 245.211 9.62571C244.923 9.03575 244.778 8.34635 244.778 7.55753C244.778 6.76207 244.923 6.06771 245.211 5.47443C245.503 4.88115 245.907 4.42045 246.424 4.09233C246.944 3.7642 247.549 3.60014 248.239 3.60014C248.928 3.60014 249.531 3.7642 250.048 4.09233C250.569 4.42045 250.973 4.88115 251.261 5.47443C251.553 6.06771 251.699 6.76207 251.699 7.55753C251.699 8.34635 251.553 9.03575 251.261 9.62571C250.973 10.2157 250.569 10.6747 250.048 11.0028C249.531 11.331 248.928 11.495 248.239 11.495ZM248.239 10.4411C248.762 10.4411 249.193 10.3068 249.531 10.0384C249.869 9.76989 250.12 9.4169 250.282 8.9794C250.444 8.5419 250.526 8.06794 250.526 7.55753C250.526 7.04711 250.444 6.5715 250.282 6.13068C250.12 5.68987 249.869 5.33357 249.531 5.06179C249.193 4.79001 248.762 4.65412 248.239 4.65412C247.715 4.65412 247.284 4.79001 246.946 5.06179C246.608 5.33357 246.358 5.68987 246.195 6.13068C246.033 6.5715 245.952 7.04711 245.952 7.55753C245.952 8.06794 246.033 8.5419 246.195 8.9794C246.358 9.4169 246.608 9.76989 246.946 10.0384C247.284 10.3068 247.715 10.4411 248.239 10.4411ZM258.899 5.4098L257.845 5.7081C257.779 5.53243 257.681 5.36174 257.552 5.19602C257.426 5.02699 257.253 4.88778 257.035 4.77841C256.816 4.66903 256.536 4.61435 256.194 4.61435C255.727 4.61435 255.338 4.72206 255.026 4.9375C254.718 5.14962 254.564 5.41974 254.564 5.74787C254.564 6.03954 254.67 6.26989 254.882 6.43892C255.094 6.60795 255.425 6.74882 255.876 6.86151L257.01 7.13991C257.693 7.30563 258.201 7.55919 258.536 7.90057C258.871 8.23864 259.038 8.67448 259.038 9.2081C259.038 9.6456 258.912 10.0367 258.66 10.3814C258.412 10.7261 258.064 10.9979 257.616 11.1967C257.169 11.3956 256.648 11.495 256.055 11.495C255.276 11.495 254.632 11.326 254.121 10.9879C253.611 10.6499 253.288 10.156 253.152 9.50639L254.265 9.22798C254.372 9.63897 254.572 9.94721 254.867 10.1527C255.165 10.3582 255.555 10.4609 256.035 10.4609C256.582 10.4609 257.016 10.3449 257.338 10.1129C257.663 9.8776 257.825 9.59588 257.825 9.26776C257.825 9.0026 257.732 8.78054 257.547 8.60156C257.361 8.41927 257.076 8.28338 256.692 8.19389L255.419 7.8956C254.72 7.72988 254.206 7.47301 253.878 7.125C253.553 6.77367 253.39 6.33452 253.39 5.80753C253.39 5.37666 253.511 4.9955 253.753 4.66406C253.999 4.33262 254.332 4.07244 254.753 3.88352C255.177 3.6946 255.657 3.60014 256.194 3.60014C256.95 3.60014 257.543 3.76586 257.974 4.0973C258.408 4.42874 258.717 4.86624 258.899 5.4098ZM261.659 11.4155C261.414 11.4155 261.204 11.3277 261.028 11.152C260.852 10.9763 260.765 10.7659 260.765 10.5206C260.765 10.2753 260.852 10.0649 261.028 9.8892C261.204 9.71354 261.414 9.62571 261.659 9.62571C261.905 9.62571 262.115 9.71354 262.291 9.8892C262.467 10.0649 262.554 10.2753 262.554 10.5206C262.554 10.683 262.513 10.8321 262.43 10.968C262.35 11.1039 262.243 11.2133 262.107 11.2962C261.974 11.3757 261.825 11.4155 261.659 11.4155Z" fill="white"/>
</svg>
